# xmcd
#
# Track frame offsets: 
#        150
#        12247
#        26545
#        38312
#        50200
#        62116
#        73823
#        85792
#        97797
#        112787
#        125164
#        136100
#        147980
#        159574
#        172574
#        186076
#        198957
#        212552
#        225342
#        238652
#        250334
#        261420
#
# Disc length: 3633 seconds
#
# Revision: 1
# Processed by: cddbd v1.5.2PL0 Copyright (c) Steve Scherf et al.
# Submitted via: ExactAudioCopy v1.0b3
#
DISCID=230e2f16
DTITLE=Delmore Brothers, The - Classic Cuts - 1933-41 [Disc D]
DYEAR=2004
DGENRE=Hillbilly
TTITLE0=Over The Hills 
TTITLE1=The Dying Truckdriver 
TTITLE2=Scatterbrain Mama 
TTITLE3=Happy On The Mississippi Shores 
TTITLE4=Rainin' On The Mountain 
TTITLE5=See That Coon In A Hickory Tree 
TTITLE6=The Storms Are On The Ocean 
TTITLE7=Back To Birmingham 
TTITLE8=The Eastern Gate 
TTITLE9=God Put A Rainbow In The Clouds 
TTITLE10=There's Trouble On My Mind Today 
TTITLE11=Silver Dollar 
TTITLE12=Old Mountain Dew 
TTITLE13=In The Blue Hills Of Virginia 
TTITLE14=Make Room In The Lifeboat For Me
TTITLE15=When It's Time For The Whip-Poor-Will To Sing  
TTITLE16=Will You Be Lonesome Too? 
TTITLE17=Broken Hearted Lover 
TTITLE18=I Now Have A Bugle To Play 
TTITLE19=Baby Girl 
TTITLE20=Gospel Cannonball 
TTITLE21=Honey I'm Ramblin' Away 
EXTD=YEAR: 2004
EXTT0=
EXTT1=
EXTT2=
EXTT3=
EXTT4=
EXTT5=
EXTT6=
EXTT7=
EXTT8=
EXTT9=
EXTT10=
EXTT11=
EXTT12=
EXTT13=
EXTT14=
EXTT15=
EXTT16=
EXTT17=
EXTT18=
EXTT19=
EXTT20=
EXTT21=
PLAYORDER=
